<svg width="16" height="16" viewBox="0 0 16 16" fill="none" xmlns="http://www.w3.org/2000/svg">
<path d="M0.884536 8.26684L3.25787 10.0002L2.35654 12.7915C2.21088 13.2244 2.20903 13.6928 2.35128 14.1269C2.49352 14.561 2.77223 14.9374 3.14587 15.2002C3.5131 15.4714 3.95813 15.6166 4.41464 15.6144C4.87115 15.6121 5.3147 15.4624 5.6792 15.1875L7.99987 13.4795L10.3212 15.1855C10.6878 15.4551 11.1304 15.6016 11.5855 15.6038C12.0405 15.606 12.4845 15.4639 12.8537 15.1978C13.2229 14.9318 13.4982 14.5555 13.6401 14.1232C13.7819 13.6908 13.783 13.2246 13.6432 12.7915L12.7419 10.0002L15.1152 8.26684C15.4813 7.99918 15.7534 7.62267 15.8928 7.1911C16.0321 6.75953 16.0315 6.29496 15.891 5.86377C15.7505 5.43257 15.4774 5.05679 15.1106 4.79011C14.7437 4.52343 14.302 4.37949 13.8485 4.37884H10.9332L10.0485 1.62151C9.90942 1.18748 9.63605 0.808849 9.26785 0.540217C8.89965 0.271584 8.45565 0.126831 7.99987 0.126831C7.54409 0.126831 7.10009 0.271584 6.73189 0.540217C6.36369 0.808849 6.09032 1.18748 5.9512 1.62151L5.06654 4.37884H2.15387C1.70037 4.37949 1.25866 4.52343 0.891856 4.79011C0.525048 5.05679 0.251896 5.43257 0.111417 5.86377C-0.0290628 6.29496 -0.0296845 6.75953 0.10964 7.1911C0.248965 7.62267 0.52111 7.99918 0.887203 8.26684H0.884536Z" fill="#FFE605"/>
</svg>
