<svg width="23.986816" height="23.231323" viewBox="0 0 23.9868 23.2313" fill="none" xmlns="http://www.w3.org/2000/svg" xmlns:xlink="http://www.w3.org/1999/xlink">
	<desc>
			Created with Pixso.
	</desc>
	<defs/>
	<path id="Vector" d="M1.31 12.21L4.87 14.81L3.52 18.99C3.3 19.64 3.3 20.34 3.51 21C3.73 21.65 4.14 22.21 4.71 22.61C5.26 23.01 5.92 23.23 6.61 23.23C7.29 23.22 7.96 23 8.51 22.59L11.99 20.02L15.47 22.58C16.02 22.99 16.68 23.21 17.36 23.21C18.05 23.21 18.71 23 19.27 22.6C19.82 22.2 20.23 21.64 20.45 20.99C20.66 20.34 20.66 19.64 20.45 18.99L19.1 14.81L22.66 12.21C23.21 11.8 23.62 11.24 23.83 10.59C24.03 9.94 24.03 9.25 23.82 8.6C23.61 7.95 23.2 7.39 22.65 6.99C22.1 6.59 21.44 6.37 20.76 6.37L16.39 6.37L15.06 2.24C14.85 1.59 14.44 1.02 13.89 0.62C13.34 0.21 12.67 0 11.99 0C11.3 0 10.64 0.21 10.08 0.62C9.53 1.02 9.12 1.59 8.91 2.24L7.59 6.37L3.22 6.37C2.54 6.37 1.87 6.59 1.32 6.99C0.77 7.39 0.36 7.95 0.15 8.6C-0.06 9.25 -0.06 9.94 0.15 10.59C0.36 11.24 0.77 11.8 1.32 12.21L1.31 12.21Z" fill="#FFE605" fill-opacity="1.000000" fill-rule="nonzero"/>
</svg>
